<?xml version="1.0" standalone="no"?><!DOCTYPE svg PUBLIC "-//W3C//DTD SVG 1.1//EN" "http://www.w3.org/Graphics/SVG/1.1/DTD/svg11.dtd"><svg t="1550298991815" class="icon" style="" viewBox="0 0 1024 1024" version="1.1" xmlns="http://www.w3.org/2000/svg" p-id="8863" data-spm-anchor-id="a313x.7781069.0.i18" xmlns:xlink="http://www.w3.org/1999/xlink" width="200" height="200"><defs><style type="text/css"></style></defs><path d="M733.1 123.9H290.2L68.8 507.4 290.2 891h442.9l221.4-383.6z" fill="#666666" p-id="8864"></path><path d="M733.5 133.4H290.7L69.2 516.9l221.5 383.6h442.8L955 516.9z" fill="#29ABE2" p-id="8865" data-spm-anchor-id="a313x.7781069.0.i19" class="selected"></path><path d="M511.4 518m-292.9 0a292.9 292.9 0 1 0 585.8 0 292.9 292.9 0 1 0-585.8 0Z" fill="#FFFFFF" p-id="8866"></path><path d="M511.5 517.9m-272.7 0a272.7 272.7 0 1 0 545.4 0 272.7 272.7 0 1 0-545.4 0Z" fill="#29ABE2" p-id="8867"></path><path d="M495.9 265.1c44.9-8.2 83.1 8.5 114.6 50 21.5 48.2 2.2 99.9-58.1 154.9-18.7 28-26.8 57.4-24.2 88.1l-47 3.9c-6.3-53.9 18.2-107.4 73.4-160.6 12.5-18.7 16.9-38.2 13.5-58.5-12.9-28.3-34.1-40.5-63.5-36.6l-10.4 0.9c-36.4 4.5-52 28.6-46.6 72.3l-49.6 4.1c-6.3-53.9 12.7-89.3 56.9-106.2 6.5-5 20.2-9.1 41-12.3z m-21.3 343.8l73.1-6.1 5.3 63.5-73.1 6.1-5.3-63.5z" fill="#FFFFFF" p-id="8868"></path><path d="M500.4 701.3H497.3v11.8s-31.9-11.6-40.5 49.5h15.7c1.1-1.6 2.4-2.7 3.9-3.2v3.2h72.5l0.1-6.4s1 2.3 2.4 6.4h13.9c-0.7-15.2-5.9-49.6-37.5-49.8 0-2.8-0.3-11.6-0.3-11.6h-2.9c19.1-5.3 33.1-22.8 33.1-43.6 0-25-20.3-45.2-45.2-45.2-25 0-45.2 20.3-45.2 45.2 0.1 20.9 14.1 38.3 33.1 43.7z" fill="#FFFFFF" p-id="8869"></path><path d="M457.9 592.3l55.2 7.3 72.1-10.2-72.1-11.2-72.1 10.7 13.8 2.4 0.4 34.8h-8l0.6 20.1 8.5-4.6 9.2 4.6v-19.6l-7.1-0.3z" fill="#FFFFFF" p-id="8870"></path><path d="M514.4 602.9l-42-6.8v23s53.5 16.5 80.9-1.3c0.6-6.1 0-21.8 0-21.8l-38.9 6.9z" fill="#FFFFFF" p-id="8871"></path></svg>