<?xml version="1.0" standalone="no"?><!DOCTYPE svg PUBLIC "-//W3C//DTD SVG 1.1//EN" "http://www.w3.org/Graphics/SVG/1.1/DTD/svg11.dtd"><svg t="1551160334307" class="icon" style="" viewBox="0 0 1024 1024" version="1.1" xmlns="http://www.w3.org/2000/svg" p-id="2537" xmlns:xlink="http://www.w3.org/1999/xlink" width="200" height="200"><defs><style type="text/css"></style></defs><path d="M198.8 424.24m17.17 0l634.66 0q17.17 0 17.17 17.17l0 235.66q0 17.17-17.17 17.17l-634.66 0q-17.17 0-17.17-17.17l0-235.66q0-17.17 17.17-17.17Z" fill="#BAD4FF" p-id="2538"></path><path d="M257 538.3l126.43-128.57 187.72 90.62a13.53 13.53 0 0 0 14.54-1.77l198.72-164.84a13.55 13.55 0 0 0-17.3-20.86l-192 159.29-188.64-91.06a13.55 13.55 0 0 0-15.55 2.7L237.69 519.3a13.55 13.55 0 1 0 19.32 19zM804.14 809.46H219a13.55 13.55 0 0 0 0 27.1h585.14a13.55 13.55 0 1 0 0-27.1z" fill="#3585F9" p-id="2539"></path><path d="M851.39 187H171.72a36.6 36.6 0 0 0-36.56 36.57v243.98a13.55 13.55 0 1 0 27.1 0V223.61a9.49 9.49 0 0 1 9.46-9.47h679.67a9.49 9.49 0 0 1 9.46 9.47v445.31a9.49 9.49 0 0 1-9.46 9.48H171.72a9.49 9.49 0 0 1-9.46-9.48v-93.08-0.67a13.55 13.55 0 1 0-27.1 0v93.75a36.6 36.6 0 0 0 36.56 36.57h679.67A36.6 36.6 0 0 0 888 668.92V223.61A36.6 36.6 0 0 0 851.39 187z" fill="#3585F9" p-id="2540"></path></svg>