<?xml version="1.0" standalone="no"?><!DOCTYPE svg PUBLIC "-//W3C//DTD SVG 1.1//EN" "http://www.w3.org/Graphics/SVG/1.1/DTD/svg11.dtd"><svg t="1550825783877" class="icon" style="" viewBox="0 0 1024 1024" version="1.1" xmlns="http://www.w3.org/2000/svg" p-id="13367" xmlns:xlink="http://www.w3.org/1999/xlink" width="200" height="200"><defs><style type="text/css"></style></defs><path d="M132.992 838.41536l0 38.887424 0 16.487424c0 12.107776 9.81504 21.924864 21.924864 21.924864l14.910464 0 36.645888 0 265.217024 0L471.69024 501.604352l-338.69824 0L132.992 838.41536z" p-id="13368" fill="#17abe3"></path><path d="M793.981952 915.714048l51.556352 0c12.1088 0 21.92384-9.816064 21.92384-21.924864l0-7.584768c0.644096-2.855936 0.996352-5.834752 0.996352-8.906752L868.458496 501.604352 529.792 501.604352l0 414.1056 264.011776 0C793.862144 915.709952 793.921536 915.714048 793.981952 915.714048z" p-id="13369" fill="#17abe3"></path><path d="M172.227584 280.93952l-51.556352 0c-12.1088 0-21.924864 9.816064-21.924864 21.924864l0 20.3776c0 0.002048 0 0.003072 0 0.00512l0 148.446208L469.16608 471.693312l0-184.92416c13.63456-1.323008 25.705472-2.927616 35.542016-4.2496 0.287744 0 0.57344-0.268288 0.612352-0.3072l0.009216 0.009216 0.652288 0 0.626688 0 0-0.351232-1.28 0-0.306176 0-0.017408-0.012288 0.33792 0 1.28 0 0 0.340992c7.597056 1.28 16.499712 2.322432 25.709568 3.247104l0 186.225664 370.402304 0L902.734848 362.897408c0.324608-1.502208 0.500736-3.059712 0.500736-4.658176l0-55.374848c0-12.1088-9.816064-21.924864-21.924864-21.924864l-51.556352 0c-1.091584 0-2.164736 0.082944-3.213312 0.236544L695.45472 281.176064c44.125184-9.839616 78.75584-30.227456 84.442112-67.647488 6.672384-42.697728-45.048832-107.418624-107.628544-99.211264-74.886144 10.203136-129.784832 74.925056-168.520704 125.154304-38.402048-49.268736-88.538112-106.774528-160.29696-123.480064-69.511168-16.114688-117.123072 54.50752-115.843072 98.199552 1.24416 37.088256 35.25632 57.171968 80.590848 66.999296L175.547392 281.1904C174.464 281.025536 173.356032 280.93952 172.227584 280.93952zM656.749568 154.068992c50.149376-24.281088 96.802816 41.408512 72.997888 72.963072-18.40128 23.952384-76.484608 26.23488-107.917312 27.553792-25.72288 1.293312-51.770368 0.684032-77.44512-1.634304C574.217216 215.478272 608.799744 177.417216 656.749568 154.068992zM277.761024 227.325952c-12.663808-13.780992-4.123648-32.524288 3.81952-46.618624 14.598144-24.961024 34.883584-40.119296 69.51424-25.990144 48.234496 19.733504 83.772416 61.492224 112.68096 98.878464C402.476032 260.1984 311.076864 262.81472 277.761024 227.325952z" p-id="13370" fill="#17abe3"></path></svg>