<?xml version="1.0" standalone="no"?><!DOCTYPE svg PUBLIC "-//W3C//DTD SVG 1.1//EN" "http://www.w3.org/Graphics/SVG/1.1/DTD/svg11.dtd"><svg t="1550825063998" class="icon" style="" viewBox="0 0 1024 1024" version="1.1" xmlns="http://www.w3.org/2000/svg" p-id="8345" xmlns:xlink="http://www.w3.org/1999/xlink" width="200" height="200"><defs><style type="text/css"></style></defs><path d="M945.152 0H137.728c-43.008 0-77.824 34.816-77.824 77.824v120.832c0 19.968 15.872 35.84 35.84 35.84s35.84-15.872 35.84-35.84V77.824c0-3.072 3.072-6.144 6.144-6.144h806.912c3.072 0 6.144 3.072 6.144 6.144v868.352c0 3.072-3.072 6.144-6.144 6.144H137.728c-3.072 0-6.144-3.072-6.144-6.144v-120.832c0-19.968-15.872-35.84-35.84-35.84s-35.84 15.872-35.84 35.84v120.832c0 43.008 34.816 77.824 77.824 77.824h806.912c43.008 0 77.824-34.816 77.824-77.824V77.824c0.512-43.008-34.816-77.824-77.312-77.824z" p-id="8346" fill="#17abe3"></path><path d="M36.864 348.16h122.88c19.968 0 35.84-15.872 35.84-35.84s-15.872-35.84-35.84-35.84h-122.88c-19.968 0-35.84 15.872-35.84 35.84s16.384 35.84 35.84 35.84zM36.864 547.84h122.88c19.968 0 35.84-15.872 35.84-35.84s-15.872-35.84-35.84-35.84h-122.88c-19.968 0-35.84 15.872-35.84 35.84s16.384 35.84 35.84 35.84zM195.584 711.68c0-19.968-15.872-35.84-35.84-35.84h-122.88c-19.968 0-35.84 15.872-35.84 35.84s15.872 35.84 35.84 35.84h122.88c19.968 0 35.84-15.872 35.84-35.84zM301.056 768.512c0 19.968 15.872 35.84 35.84 35.84s35.84-15.872 35.84-35.84c0-104.448 84.992-189.44 189.44-189.44s189.44 84.992 189.44 189.44c0 19.968 15.872 35.84 35.84 35.84s35.84-15.872 35.84-35.84c0-102.4-59.392-190.976-144.896-233.984 38.4-32.768 62.976-81.92 62.976-136.192 0-98.816-80.384-179.2-179.2-179.2s-179.2 80.384-179.2 179.2c0 54.784 24.576 103.424 62.976 136.192-86.016 43.008-144.896 132.096-144.896 233.984z m261.12-477.184c59.392 0 107.52 48.128 107.52 107.52s-48.128 107.52-107.52 107.52-107.52-48.128-107.52-107.52 48.128-107.52 107.52-107.52z" p-id="8347" fill="#17abe3"></path></svg>