<?xml version="1.0" standalone="no"?><!DOCTYPE svg PUBLIC "-//W3C//DTD SVG 1.1//EN" "http://www.w3.org/Graphics/SVG/1.1/DTD/svg11.dtd"><svg t="1550824747542" class="icon" style="" viewBox="0 0 1104 1024" version="1.1" xmlns="http://www.w3.org/2000/svg" p-id="3881" xmlns:xlink="http://www.w3.org/1999/xlink" width="215.625" height="200"><defs><style type="text/css"></style></defs><path d="M836.231037 725.422408a488.365576 488.365576 0 0 0-118.765948-65.321271 325.240547 325.240547 0 0 0 61.223846-48.100209 320.668058 320.668058 0 0 0 94.597078-228.327534v-3.503596c16.152169-12.767339 29.394572-30.3447 29.394572-53.741591V212.709812l198.1016-56.354442L550.361401 0 0 156.592902l79.157504 22.506147V433.020645a38.895848 38.895848 0 0 0 77.791696 0v-231.593598l41.152401 11.876595v113.243331c0 23.396892 13.242403 40.974252 29.394572 53.741591v3.503596a320.668058 320.668058 0 0 0 94.597077 228.327534 325.240547 325.240547 0 0 0 60.689399 47.506379 488.24681 488.24681 0 0 0-119.656692 65.321271A527.083275 527.083275 0 0 0 83.136163 969.248898a38.907724 38.907724 0 1 0 73.100441 26.662955 449.469729 449.469729 0 0 1 153.386221-207.840408 398.697286 398.697286 0 0 1 480.289492 0 449.469729 449.469729 0 0 1 153.386222 207.840408 38.907724 38.907724 0 1 0 73.10044-26.662955 527.023892 527.023892 0 0 0-180.049176-243.82649z m-285.869636-360.454651q-25.594062 0-48.990953-0.950128a630.469033 630.469033 0 0 1-214.431919-58.017165 39.014614 39.014614 0 0 0-10.98585-3.562978v-53.444677l263.897936 73.991185a38.895848 38.895848 0 0 0 21.021572 0l263.957319-73.991185v53.444677a38.955231 38.955231 0 0 0-10.98585 3.562978 630.647182 630.647182 0 0 1-214.431919 58.017165q-23.396892 0.890745-48.990953 0.950128z m0-284.088147l266.095106 75.713292-266.095106 75.713291-266.095105-75.713291zM307.306889 415.740199c49.644166 13.539318 114.787288 22.624913 186.225006 25.772211 18.289956 1.60334 37.233125 2.494085 56.770123 2.494085s38.480167-0.890745 56.770123-2.494085c71.259569-3.147298 136.58084-12.232893 186.225006-25.772211a245.132916 245.132916 0 0 1-486.049641 0z m0 0" fill="#17abe3" p-id="3882"></path></svg>