<?xml version="1.0" standalone="no"?><!DOCTYPE svg PUBLIC "-//W3C//DTD SVG 1.1//EN" "http://www.w3.org/Graphics/SVG/1.1/DTD/svg11.dtd"><svg t="1550825845546" class="icon" style="" viewBox="0 0 1024 1024" version="1.1" xmlns="http://www.w3.org/2000/svg" p-id="14977" xmlns:xlink="http://www.w3.org/1999/xlink" width="200" height="200"><defs><style type="text/css"></style></defs><path d="M607.744 633.856c5.12 3.072 10.24 5.12 14.336 5.12 5.12 0 9.216-1.024 15.36-5.12h1.024c41.984-28.672 247.808-176.128 327.68-322.56 21.504-33.792 32.768-70.656 32.768-109.568C998.912 91.136 908.8 0 798.208 0c-72.704 0-128 53.248-166.912 99.328l-7.168 8.192-7.168-8.192C579.072 56.32 521.728 0 449.024 0 338.432 0 248.32 91.136 248.32 201.728c0 38.912 11.264 76.8 32.768 109.568 84.992 161.792 324.608 321.536 326.656 322.56zM448 51.2c60.416 0 109.568 58.368 135.168 89.088 16.384 20.48 24.576 28.672 38.912 28.672 13.312 0 21.504-8.192 37.888-26.624l1.024-1.024C685.568 111.616 735.744 51.2 797.184 51.2c81.92 0 148.48 67.584 148.48 150.528 0 29.696-8.192 58.368-23.552 81.92v1.024c0 1.024-1.024 1.024-2.048 2.048-63.488 118.784-225.28 242.688-291.84 290.816l-5.12 4.096-5.12-4.096c-67.584-48.128-230.4-174.08-292.864-291.84l-2.048-2.048v-1.024c-15.36-24.576-23.552-53.248-23.552-81.92-1.024-81.92 66.56-149.504 148.48-149.504z m523.264 582.656c-11.264-6.144-23.552-10.24-34.816-10.24-35.84 0-64.512 30.72-75.776 41.984-24.576 25.6-58.368 57.344-96.256 89.088l-4.096 4.096-5.12-2.048c-7.168-3.072-15.36-4.096-25.6-5.12-45.056-3.072-166.912-13.312-196.608-31.744-27.648-16.384-49.152-32.768-69.632-47.104l-3.072-2.048-2.048-1.024c-55.296-39.936-99.328-71.68-207.872-71.68-29.696 0-55.296 7.168-86.016 16.384l-4.096 1.024-3.072 1.024c-26.624 8.192-51.2 15.36-81.92 15.36-33.792 0-60.416 27.648-60.416 60.416v163.84c0 33.792 26.624 60.416 60.416 60.416 69.632 0 157.696 4.096 178.176 10.24C293.376 942.08 384.512 996.352 413.184 1013.76l1.024 1.024c11.264 6.144 23.552 9.216 34.816 9.216h295.936c30.72 0 63.488-28.672 75.776-48.128 15.36-25.6 58.368-88.064 173.056-235.52 2.048-3.072 4.096-6.144 5.12-7.168v-1.024c0-1.024 1.024-2.048 2.048-3.072V727.04c18.432-31.744 4.096-73.728-29.696-93.184zM957.952 704.512v2.048l-4.096 5.12c-52.224 67.584-145.408 188.416-178.176 241.664-5.12 8.192-22.528 21.504-29.696 22.528H448c-4.096 0-7.168-1.024-9.216-2.048l-2.048-1.024c-15.36-9.216-116.736-72.704-166.912-89.088C237.056 872.448 128.512 871.424 87.552 870.4H66.048V688.128h9.216c38.912 0 71.68-10.24 97.28-18.432l5.12-1.024c25.6-8.192 47.104-15.36 71.68-15.36 94.208 0 129.024 25.6 181.248 63.488l3.072 2.048 4.096 3.072c18.432 13.312 39.936 29.696 66.56 46.08 12.288 8.192 32.768 14.336 66.56 21.504 57.344 11.264 124.928 16.384 151.552 17.408h4.096c5.12 0 10.24 2.048 14.336 6.144 4.096 4.096 6.144 9.216 6.144 13.312 1.024 5.12-1.024 10.24-5.12 14.336-4.096 4.096-9.216 7.168-14.336 7.168L505.344 860.16c-16.384-1.024-47.104-20.48-88.064-50.176-2.048-1.024-4.096-3.072-5.12-4.096-2.048-1.024-3.072-2.048-5.12-3.072-2.048-1.024-4.096-3.072-5.12-4.096-2.048-1.024-3.072-2.048-5.12-4.096-15.36-11.264-28.672-19.456-40.96-25.6-4.096-2.048-7.168-3.072-11.264-3.072-9.216 0-18.432 5.12-23.552 14.336-6.144 12.288-1.024 28.672 11.264 34.816 11.264 5.12 25.6 15.36 39.936 25.6 0 0 14.336 10.24 16.384 11.264l2.048 1.024c43.008 30.72 82.944 58.368 116.736 58.368l222.208-12.288c39.936-1.024 71.68-32.768 71.68-72.704 0-7.168-1.024-15.36-3.072-22.528l-4.096-6.144 5.12-4.096c25.6-21.504 64.512-56.32 97.28-90.112 17.408-18.432 28.672-25.6 38.912-25.6 4.096 0 7.168 2.048 9.216 3.072 10.24 5.12 14.336 14.336 13.312 23.552z" p-id="14978" fill="#17abe3"></path></svg>