<?xml version="1.0" standalone="no"?><!DOCTYPE svg PUBLIC "-//W3C//DTD SVG 1.1//EN" "http://www.w3.org/Graphics/SVG/1.1/DTD/svg11.dtd"><svg t="1550826627540" class="icon" style="" viewBox="0 0 1024 1024" version="1.1" xmlns="http://www.w3.org/2000/svg" p-id="15768" xmlns:xlink="http://www.w3.org/1999/xlink" width="200" height="200"><defs><style type="text/css"></style></defs><path d="M513.921024 705.2288c199.27552 0 360.820736 45.759488 360.820736 102.207488s-161.545216 102.208512-360.820736 102.208512-360.820736-45.760512-360.820736-102.208512S314.645504 705.2288 513.921024 705.2288c-248.482816 0-449.917952 57.058304-449.917952 127.444992 0 70.385664 201.435136 127.446016 449.917952 127.446016s449.917952-57.060352 449.917952-127.446016C963.84 762.287104 762.404864 705.2288 513.921024 705.2288z" p-id="15769" fill="#17abe3"></path><path d="M740.742144 292.859904c0-126.367744-110.357504-228.795392-228.856832-228.795392-118.501376 0-228.876288 102.445056-228.876288 228.795392 0 24.160256-6.263808 49.585152 28.612608 137.269248 19.011584 47.828992 200.262656 366.041088 200.262656 366.041088s180.640768-316.75392 200.24832-366.041088C746.993664 342.44608 740.742144 317.021184 740.742144 292.859904zM512.333824 396.561408c-54.28736 0.017408-98.265088-44.665856-98.265088-99.812352 0-55.110656 44.000256-99.8144 98.265088-99.8144 54.270976 0 98.28864 44.70272 98.28864 99.8144C610.622464 351.87712 566.6048 396.561408 512.333824 396.561408z" p-id="15770" fill="#17abe3"></path></svg>