<?xml version="1.0" standalone="no"?><!DOCTYPE svg PUBLIC "-//W3C//DTD SVG 1.1//EN" "http://www.w3.org/Graphics/SVG/1.1/DTD/svg11.dtd"><svg t="1550825803537" class="icon" style="" viewBox="0 0 1038 1024" version="1.1" xmlns="http://www.w3.org/2000/svg" p-id="14182" xmlns:xlink="http://www.w3.org/1999/xlink" width="202.734375" height="200"><defs><style type="text/css"></style></defs><path d="M912.126027 78.392418c0-20.037359-16.392342-36.428677-36.424584-36.428677L38.650275 41.963741c-20.037359 0-36.429701 16.390295-36.429701 36.428677l0 655.352919c0 20.037359 16.392342 36.428677 36.429701 36.428677l31.103392 0c20.037359 0 36.428677-16.390295 36.428677-36.428677L106.182344 184.173626c0-20.032242 16.392342-36.422538 36.429701-36.422538l733.090421 0c20.032242 0 36.424584-16.392342 36.424584-36.429701L912.12705 78.392418 912.126027 78.392418zM912.126027 78.392418" p-id="14183" fill="#17abe3"></path><path d="M979.26617 217.940684 215.137849 217.940684c-23.461341 0-42.47744 18.98233-42.47744 42.437531l0 679.219489c0 23.455201 19.016099 42.437531 42.47744 42.437531l764.161067 0c23.461341 0 42.437531-18.981307 42.437531-42.437531l0-679.219489C1021.703701 236.923014 1002.721371 217.940684 979.26617 217.940684L979.26617 217.940684 979.26617 217.940684zM894.351198 854.682733 300.011888 854.682733 300.011888 642.461307l127.386272-127.384225 212.255195 212.260312 127.384225-127.346363 127.35148 127.346363 0 127.346363L894.351198 854.683756 894.351198 854.682733zM809.442366 515.076058c-46.918589 0-84.876086-37.991266-84.876086-84.875063 0-46.952358 37.957497-84.908832 84.876086-84.908832 46.951335 0 84.908832 37.956474 84.908832 84.908832C894.351198 477.085816 856.393701 515.076058 809.442366 515.076058L809.442366 515.076058 809.442366 515.076058zM809.442366 515.076058" p-id="14184" fill="#17abe3"></path></svg>