<?xml version="1.0" standalone="no"?><!DOCTYPE svg PUBLIC "-//W3C//DTD SVG 1.1//EN" "http://www.w3.org/Graphics/SVG/1.1/DTD/svg11.dtd"><svg t="1550826719332" class="icon" style="" viewBox="0 0 1024 1024" version="1.1" xmlns="http://www.w3.org/2000/svg" p-id="18340" xmlns:xlink="http://www.w3.org/1999/xlink" width="200" height="200"><defs><style type="text/css"></style></defs><path d="M985.871059 806.430118H500.254118c-17.648941 0-31.924706-18.913882-31.924706-42.164706 0-23.311059 14.275765-42.164706 31.924706-42.164706h485.49647c17.588706 0 31.924706 18.853647 31.924706 42.164706 0 23.250824-14.215529 42.164706-31.804235 42.164706z m-149.865412 180.826353H345.449412c-17.588706 0-31.924706-18.853647-31.924706-42.164706 0-23.250824 14.336-42.164706 31.924706-42.164706h490.556235c17.588706 0 31.924706 18.913882 31.924706 42.164706 0 23.311059-14.336 42.164706-31.924706 42.164706zM298.405647 855.04a30.057412 30.057412 0 0 1-16.986353-5.12L49.995294 706.198588a30.72 30.72 0 0 1-8.854588-42.285176l386.108235-592.112941A96.256 96.256 0 0 1 561.392941 44.333176l123.78353 73.366589a95.472941 95.472941 0 0 1 27.226353 131.915294L324.065882 841.246118a30.418824 30.418824 0 0 1-25.660235 13.854117z m-152.997647-189.982118l130.108235 84.208942 299.369412-456.463059a29.936941 29.936941 0 0 0-8.432941-41.140706l-81.438118-52.464941a30.177882 30.177882 0 0 0-41.863529 8.613647L145.347765 664.997647z" fill="#17abe3" p-id="18341"></path><path d="M37.586824 961.596235a30.358588 30.358588 0 0 1-13.071059-27.226353l12.649411-251.482353a30.72 30.72 0 0 1 33.008942-28.310588c16.986353 1.264941 237.628235 145.106824 244.675764 160.527059 7.107765 15.239529 1.987765 36.382118-13.492706 43.369412l-233.351529 106.074353a33.731765 33.731765 0 0 1-12.769882 2.590117 30.659765 30.659765 0 0 1-17.648941-5.541647zM564.404706 409.118118a35.177412 35.177412 0 0 1-20.118588-6.324706L366.953412 285.093647a39.634824 39.634824 0 0 1-10.541177-53.368471 35.478588 35.478588 0 0 1 50.718118-11.083294l177.332706 117.699765c16.986353 11.745882 21.684706 35.599059 10.541176 53.368471a35.900235 35.900235 0 0 1-30.599529 17.408z" fill="#17abe3" p-id="18342"></path></svg>