<?xml version="1.0" standalone="no"?><!DOCTYPE svg PUBLIC "-//W3C//DTD SVG 1.1//EN" "http://www.w3.org/Graphics/SVG/1.1/DTD/svg11.dtd"><svg t="1550824924422" class="icon" style="" viewBox="0 0 1024 1024" version="1.1" xmlns="http://www.w3.org/2000/svg" p-id="7564" xmlns:xlink="http://www.w3.org/1999/xlink" width="200" height="200"><defs><style type="text/css"></style></defs><path d="M281.6 281.6c-128 0-234.666667 106.666667-234.666667 234.666667s106.666667 234.666667 234.666667 234.666666 234.666667-106.666667 234.666667-234.666666-106.666667-234.666667-234.666667-234.666667m558.933333-234.666667c-81.066667 0-145.066667 64-145.066666 145.066667s64 145.066667 145.066666 145.066667 145.066667-64 145.066667-145.066667-64-145.066667-145.066667-145.066667m0 644.266667c-81.066667 0-145.066667 64-145.066666 145.066667s64 145.066667 145.066666 145.066666 145.066667-64 145.066667-145.066666-64-145.066667-145.066667-145.066667" fill="#17abe3" p-id="7565"></path><path d="M452.266667 584.533333l302.933333 174.933334-25.6 51.2-302.933333-174.933334 25.6-51.2z m307.2-311.466666l-302.933334 174.933333-29.866666-46.933333 302.933333-174.933334 29.866667 46.933334z m0 0" fill="#17abe3" p-id="7566"></path></svg>