<?xml version="1.0" standalone="no"?><!DOCTYPE svg PUBLIC "-//W3C//DTD SVG 1.1//EN" "http://www.w3.org/Graphics/SVG/1.1/DTD/svg11.dtd"><svg t="1550825251870" class="icon" style="" viewBox="0 0 1098 1024" version="1.1" xmlns="http://www.w3.org/2000/svg" p-id="11396" xmlns:xlink="http://www.w3.org/1999/xlink" width="214.453125" height="200"><defs><style type="text/css"></style></defs><path d="M949.248 1014.009756H148.105366a133.619512 133.619512 0 0 1-133.469659-133.819317V277.678829A133.74439 133.74439 0 0 1 148.105366 143.734634h200.204488V76.849951A66.684878 66.684878 0 0 1 415.044683 9.940293h267.114146a66.809756 66.809756 0 0 1 66.73483 66.909658v66.884683h200.354341a133.619512 133.619512 0 0 1 133.494634 133.794342V879.890732a133.569561 133.569561 0 0 1-133.494634 134.119024zM682.158829 110.342244c0-18.407024-14.96039-33.367415-33.367414-33.517268H448.561951c-18.407024 0-33.367415 14.935415-33.367414 33.517268V143.859512H682.333659c-0.149854 0-0.149854-33.517268-0.149854-33.517268z m333.824 167.31161a66.809756 66.809756 0 0 0-66.734829-66.884683H148.105366a66.809756 66.809756 0 0 0-66.734829 66.884683v167.336585h934.612292v-167.336585z m-534.053463 267.738536a66.759805 66.759805 0 0 0 66.285268 67.18439 66.759805 66.759805 0 0 0 67.18439-66.235317 65.735805 65.735805 0 0 0-9.265951-34.316487h-114.887805c-5.994146 10.065171-9.315902 21.72878-9.315902 33.367414z m534.053463-33.367414H677.438439a133.644488 133.644488 0 0 1-93.658537 164.014829 133.644488 133.644488 0 0 1-164.014829-93.658537 133.394732 133.394732 0 0 1 0-70.356292H81.345561v368.140487a66.809756 66.809756 0 0 0 66.759805 66.909659h801.142634a66.809756 66.809756 0 0 0 66.734829-66.909659v-368.140487z" fill="#17abe3" p-id="11397"></path></svg>